# xmcd
#
# Track frame offsets:
#	182
#	13770
#	28457
#	41930
#	57440
#	73010
#	91487
#	113552
#	126152
#	137147
#	155512
#	172217
#
# Disc length: 2498
#
# Revision: 1
# Processed by: cddbd v1.5.1PL0 Copyright (c) Steve Scherf et al.
# Submitted via: VisiTrax 2.9.5.180 - For more info visit www.synapsa.com
# Normalized: r0:DSETVAR2
#
DISCID=b409c00c
DTITLE=Various Artist - Merle Haggard and friends
DYEAR=1900
DGENRE=
TTITLE0=Merle Haggard - Working man blues
TTITLE1=Merle Haggard - Folsom prison blues
TTITLE2=Merle Haggard/Freddy Wellor - Games people play
TTITLE3=Merle Haggard - Always late
TTITLE4=Merle Haggard - T. B. Blues
TTITLE5=Merle Haggard - Footlights
TTITLE6=Merle Haggard - The bottle let me down
TTITLE7=Merle Haggard - If you want to be my baby
TTITLE8=Merle Haggard - Corinne Corinna
TTITLE9=Merle Haggard - Mama don't let your babies grow up to be cowboys
TTITLE10=Merle Haggard/ Porter Wagoner - Louisiana saturday night
TTITLE11=Merle Haggard - Okie from Muskogee
EXTD=
EXTT0=
EXTT1=
EXTT2=
EXTT3=
EXTT4=
EXTT5=
EXTT6=
EXTT7=
EXTT8=
EXTT9=
EXTT10=
EXTT11=
PLAYORDER=
